<svg xmlns="http://www.w3.org/2000/svg" xmlns:xlink="http://www.w3.org/1999/xlink" version="1.1" x="0px" y="0px" viewBox="0 0 100 125" enable-background="new 0 0 100 100" xml:space="preserve"><path d="M64.471,95H35.529c-6.508,0-8.705-6.4-8.988-9.983c-10.687-48.879,13.05-72.16,15.223-74.167  c3.996-4.45,7.191-5.176,7.795-5.276c0.291-0.05,0.588-0.05,0.88,0c0.604,0.1,3.8,0.826,7.797,5.276  c2.172,2.007,25.909,25.288,15.223,74.169C73.175,88.6,70.978,95,64.471,95z M49.991,11.035c-0.742,0.339-2.336,1.25-4.319,3.481  c-0.069,0.077-0.142,0.15-0.218,0.218c-0.235,0.213-23.989,22.315-13.638,69.326c0.03,0.137,0.05,0.276,0.058,0.419  c0.014,0.198,0.389,5.164,3.656,5.164h28.941c3.313,0,3.654-5.115,3.656-5.166c0.009-0.141,0.027-0.28,0.059-0.417  C78.536,37.05,54.782,14.947,54.541,14.729c-0.073-0.066-0.147-0.141-0.213-0.213C52.356,12.297,50.769,11.384,49.991,11.035z   M49.999,14.663c-1.279,0-2.317,1.038-2.317,2.317s1.038,2.318,2.317,2.318c1.28,0,2.317-1.038,2.317-2.318  S51.279,14.663,49.999,14.663z M43.502,21.106c-1.28,0-2.317,1.038-2.317,2.318s1.038,2.318,2.317,2.318s2.317-1.038,2.317-2.318  S44.782,21.106,43.502,21.106z M38.717,29.746c-1.279,0-2.317,1.038-2.317,2.317c0,1.28,1.038,2.318,2.317,2.318  c1.28,0,2.317-1.038,2.317-2.318C41.035,30.784,39.998,29.746,38.717,29.746z M35.495,39.525c-1.279,0-2.317,1.038-2.317,2.317  c0,1.28,1.038,2.318,2.317,2.318c1.28,0,2.318-1.038,2.318-2.318C37.813,40.563,36.775,39.525,35.495,39.525z M34.083,49.168  c-1.28,0-2.317,1.038-2.317,2.316c0,1.281,1.038,2.318,2.317,2.318s2.317-1.037,2.317-2.318  C36.4,50.206,35.362,49.168,34.083,49.168z M33.726,59.369c-1.279,0-2.317,1.038-2.317,2.316c0,1.28,1.038,2.318,2.317,2.318  c1.28,0,2.318-1.038,2.318-2.318C36.044,60.407,35.006,59.369,33.726,59.369z M34.083,68.752c-1.28,0-2.317,1.038-2.317,2.316  c0,1.28,1.038,2.318,2.317,2.318s2.317-1.038,2.317-2.318C36.4,69.79,35.362,68.752,34.083,68.752z M54.18,23.424  c0,1.28,1.038,2.318,2.318,2.318c1.279,0,2.317-1.038,2.317-2.318s-1.038-2.318-2.317-2.318  C55.218,21.106,54.18,22.144,54.18,23.424z M58.964,32.063c0,1.28,1.039,2.318,2.317,2.318c1.281,0,2.317-1.038,2.317-2.318  c0-1.279-1.036-2.317-2.317-2.317C60.003,29.746,58.964,30.784,58.964,32.063z M62.186,41.842c0,1.28,1.039,2.318,2.317,2.318  c1.281,0,2.318-1.038,2.318-2.318c0-1.279-1.037-2.317-2.318-2.317C63.225,39.525,62.186,40.563,62.186,41.842z M63.599,51.484  c0,1.281,1.038,2.318,2.317,2.318c1.28,0,2.318-1.037,2.318-2.318c0-1.278-1.038-2.316-2.318-2.316  C64.637,49.168,63.599,50.206,63.599,51.484z M63.955,61.686c0,1.28,1.038,2.318,2.318,2.318s2.317-1.038,2.317-2.318  c0-1.278-1.037-2.316-2.317-2.316S63.955,60.407,63.955,61.686z M63.599,71.068c0,1.28,1.038,2.318,2.317,2.318  c1.28,0,2.318-1.038,2.318-2.318c0-1.278-1.038-2.316-2.318-2.316C64.637,68.752,63.599,69.79,63.599,71.068z M63.96,83.729  c0-1.479-1.199-2.678-2.679-2.678H38.717c-1.479,0-2.678,1.199-2.678,2.678c0,1.479,1.199,2.679,2.678,2.679h22.564  C62.761,86.408,63.96,85.209,63.96,83.729z"/><text x="0" y="115" fill="#000000" font-size="5px" font-weight="bold" font-family="'Helvetica Neue', Helvetica, Arial-Unicode, Arial, Sans-serif">Created by 승미 이</text><text x="0" y="120" fill="#000000" font-size="5px" font-weight="bold" font-family="'Helvetica Neue', Helvetica, Arial-Unicode, Arial, Sans-serif">from the Noun Project</text></svg>