<svg xmlns="http://www.w3.org/2000/svg" xmlns:xlink="http://www.w3.org/1999/xlink" version="1.1" x="0px" y="0px" viewBox="0 0 100 125" enable-background="new 0 0 100 100" xml:space="preserve"><g display="none"><path display="inline" d="M74.475,27.642c1.309,0,2.616,0.499,3.614,1.497c1.996,1.996,1.995,5.232,0,7.228L43.593,70.86   c-0.998,0.998-2.306,1.497-3.613,1.497c-1.308,0-2.616-0.499-3.614-1.497L21.911,56.405c-1.996-1.995-1.996-5.23,0-7.226   c0.998-0.998,2.306-1.497,3.614-1.497c1.308,0,2.616,0.499,3.614,1.497l10.841,10.841l30.882-30.881   C71.859,28.141,73.167,27.642,74.475,27.642 M74.475,24.642c-2.166,0-4.203,0.844-5.735,2.376l-28.76,28.759l-8.719-8.719   c-1.532-1.532-3.569-2.376-5.735-2.376c-2.167,0-4.204,0.844-5.735,2.376c-1.532,1.531-2.375,3.568-2.375,5.734   c0,2.167,0.844,4.203,2.376,5.735l14.455,14.454c1.531,1.532,3.568,2.376,5.735,2.376c2.167,0,4.203-0.844,5.735-2.376   L80.21,38.488c3.163-3.164,3.162-8.309,0-11.471C78.679,25.486,76.642,24.642,74.475,24.642L74.475,24.642z"/></g><g display="none"><g display="inline"><path d="M76.989,27.945c2.493,0,4.512,2.021,4.512,4.512v35.088c0,2.49-2.019,4.51-4.512,4.51H23.01    c-2.491,0-4.511-2.02-4.511-4.51V32.457c0-2.491,2.02-4.512,4.511-4.512H76.989 M76.989,24.945H23.01    c-4.142,0-7.511,3.37-7.511,7.512v35.088c0,4.141,3.369,7.51,7.511,7.51h53.979c4.142,0,7.512-3.369,7.512-7.51V32.457    C84.501,28.315,81.131,24.945,76.989,24.945L76.989,24.945z"/></g><polyline display="inline" fill="none" stroke="#000000" stroke-width="3" stroke-linecap="round" stroke-linejoin="round" stroke-miterlimit="10" points="   76.501,32.794 49.999,56.295 23.499,32.794  "/></g><g display="none"><polyline display="inline" fill="none" stroke="#000000" stroke-width="3" stroke-linecap="round" stroke-linejoin="round" stroke-miterlimit="10" points="   23.499,45.523 50,22.022 76.501,45.523  "/><path display="inline" fill="none" stroke="#000000" stroke-width="3" stroke-linecap="round" stroke-linejoin="round" stroke-miterlimit="10" d="   M70.54,47.437v26.21c0,2.392-1.938,4.33-4.33,4.33H33.79c-2.391,0-4.33-1.938-4.33-4.33v-26.21"/><path display="inline" fill="none" stroke="#000000" stroke-width="3" stroke-linecap="round" stroke-linejoin="round" stroke-miterlimit="10" d="   M43.067,77.313V64.438c0-2.762,2.239-5,5-5h3.865c2.762,0,5,2.238,5,5v12.875"/></g><g><path d="M69.881,30.118c-3.643-3.643-8.486-5.649-13.639-5.649c-5.151,0-9.995,2.006-13.637,5.649   c-7.52,7.521-7.52,19.757,0,27.277c3.643,3.644,8.486,5.649,13.639,5.65c0,0,0,0,0.001,0c5.15,0,9.994-2.007,13.637-5.649   C77.402,49.875,77.401,37.638,69.881,30.118z M67.761,55.274c-3.076,3.076-7.166,4.771-11.517,4.771s-8.441-1.695-11.518-4.771   c-6.351-6.351-6.351-16.684,0-23.035c3.076-3.076,7.167-4.77,11.516-4.77c4.351,0,8.441,1.694,11.518,4.771   C74.11,38.59,74.111,48.923,67.761,55.274z"/><path d="M39.315,58.563L24.908,72.971c-0.586,0.586-0.586,1.535,0,2.121c0.293,0.293,0.677,0.439,1.061,0.439   s0.768-0.146,1.061-0.439l14.407-14.407c0.586-0.586,0.586-1.535,0-2.121S39.901,57.978,39.315,58.563z"/></g><text x="0" y="115" fill="#000000" font-size="5px" font-weight="bold" font-family="'Helvetica Neue', Helvetica, Arial-Unicode, Arial, Sans-serif">Created by lipi</text><text x="0" y="120" fill="#000000" font-size="5px" font-weight="bold" font-family="'Helvetica Neue', Helvetica, Arial-Unicode, Arial, Sans-serif">from the Noun Project</text></svg>